<svg xmlns="http://www.w3.org/2000/svg" width="32" height="32" viewBox="120 48 580 580">
  <!-- IconsAI Skills Favicon: "i" vermelho + ".ai" cyan -->

  <!-- "i" (left) - VERMELHO #DC2626 -->
  <!-- play button triangle -->
  <path d="M0,0 L7,0 L15,4 L21,8 L26,10 L34,16 L38,17 L43,20 L47,23 L54,26 L57,28 L57,30 L65,32 L75,39 L80,41 L89,47 L94,49 L102,54 L109,58 L115,63 L120,66 L126,73 L127,89 L121,96 L119,96 L119,99 L109,105 L101,110 L95,112 L91,116 L84,119 L82,119 L80,123 L75,126 L70,128 L64,133 L57,136 L51,141 L46,143 L39,149 L33,150 L31,154 L22,158 L19,159 L17,162 L10,165 L-7,165 L-13,160 L-14,156 L-15,153 L-15,17 L-13,10 L-11,10 L-10,6 L-8,6 L-3,1 Z M26,63 L26,105 L32,103 L36,101 L40,97 L48,93 L55,88 L62,84 L58,82 L57,79 L51,77 L43,72 L40,70 L33,68 L32,66 L28,63 Z" fill="#DC2626" transform="translate(160,66)"/>
  <!-- i stem -->
  <path d="M0,0 L7,1 L11,6 L11,197 L10,247 L10,350 L8,350 L8,353 L-70,353 L-71,350 L-72,155 L-73,123 L-73,47 L-71,47 L-70,42 L-62,38 L-55,32 L-49,31 L-49,29 L-41,24 L-36,21 L-29,16 L-24,15 L-19,10 L-15,8 L-12,8 L-12,6 L-4,1 Z" fill="#DC2626" transform="translate(216,254)"/>

  <!-- ".ai" - CYAN #06B6D4 -->
  <!-- letter "a" -->
  <path d="M0,0 L9,0 L19,2 L40,4 L48,5 L58,8 L59,10 L69,12 L78,16 L78,18 L87,21 L94,27 L99,30 L108,38 L110,43 L113,44 L116,48 L117,52 L125,63 L127,72 L131,80 L133,90 L135,112 L136,115 L136,226 L135,303 L133,309 L60,309 L60,307 L58,306 L57,276 L52,281 L45,287 L38,293 L36,295 L30,296 L29,299 L21,303 L13,304 L13,306 L2,310 L-22,312 L-37,312 L-60,310 L-69,307 L-79,302 L-84,301 L-90,297 L-90,295 L-94,294 L-98,292 L-102,288 L-106,286 L-110,281 L-115,276 L-118,271 L-122,265 L-125,259 L-128,246 L-130,245 L-132,238 L-133,225 L-133,212 L-131,199 L-129,193 L-127,189 L-124,179 L-118,171 L-117,168 L-115,167 L-109,159 L-98,148 L-94,147 L-94,145 L-90,145 L-88,141 L-81,137 L-75,137 L-75,135 L-65,130 L-58,129 L-38,123 L-31,124 L-31,122 L-21,123 L-21,121 L-16,121 L-16,123 L-11,122 L50,122 L56,123 L55,109 L54,99 L51,92 L47,84 L42,79 L39,76 L32,73 L22,68 L11,66 L-12,66 L-25,69 L-34,73 L-42,75 L-47,78 L-54,82 L-59,85 L-66,90 L-70,92 L-74,97 L-81,99 L-86,93 L-89,88 L-94,82 L-95,77 L-99,75 L-103,69 L-109,62 L-112,57 L-118,50 L-113,44 L-110,43 L-109,41 L-107,41 L-105,37 L-94,30 L-89,27 L-84,26 L-82,22 L-74,19 L-70,19 L-70,16 L-58,11 L-51,10 L-50,8 L-39,5 L-32,4 L-11,2 Z M-3,176 L-20,178 L-20,180 L-27,181 L-39,185 L-44,190 L-49,193 L-51,198 L-53,200 L-55,203 L-56,211 L-56,219 L-55,226 L-52,227 L-50,232 L-47,236 L-43,239 L-31,245 L-31,246 L-19,248 L-13,249 L5,249 L12,248 L23,246 L26,243 L35,239 L40,234 L46,229 L49,224 L51,218 L54,213 L56,203 L58,183 L58,177 Z" fill="#06B6D4" transform="translate(413,298)"/>
  <!-- right "i" stem -->
  <path d="M0,0 L77,0 L79,1 L79,294 L76,297 L1,297 L0,294 Z" fill="#06B6D4" transform="translate(592,310)"/>
  <!-- right "i" dot -->
  <path d="M0,0 L11,0 L24,4 L26,6 L33,9 L41,16 L43,20 L47,24 L50,32 L51,38 L53,42 L53,53 L51,54 L49,66 L46,72 L39,80 L37,81 L32,86 L25,89 L24,91 L14,93 L-6,93 L-14,90 L-14,88 L-21,86 L-29,79 L-31,73 L-35,71 L-40,54 L-40,41 L-37,31 L-35,24 L-30,19 L-27,14 L-23,11 L-20,8 L-12,4 L-3,1 Z" fill="#06B6D4" transform="translate(623,184)"/>
  <!-- period dot -->
  <path d="M0,0 L11,1 L19,5 L24,10 L28,15 L30,21 L30,35 L27,43 L22,49 L12,55 L8,56 L-3,56 L-13,52 L-19,47 L-24,39 L-25,35 L-25,21 L-20,11 L-15,6 L-8,2 Z" fill="#06B6D4" transform="translate(252,547)"/>
</svg>
